<svg version="1.1" xmlns="http://www.w3.org/2000/svg" style="display: block;" viewBox="0 0 2048 2048" width="1024" height="1024">
<path transform="translate(0,0)" fill="rgb(255,255,255)" d="M 0 0 L 2048 0 L 2048 2048 L 0 2048 L 0 0 z"/>
<path transform="translate(0,0)" fill="rgb(20,27,67)" d="M 1528.31 408.535 C 1533.58 411.284 1538.72 415.442 1543.89 418.563 C 1568.3 433.309 1593.2 445.903 1622.33 443.814 C 1639.06 442.615 1655.01 441.411 1671.46 445.545 C 1689.17 449.992 1717.5 464.682 1731.56 476.381 C 1738.77 482.379 1739.62 492.4 1743.27 500.521 C 1745.26 504.955 1748.25 508.814 1751.34 512.524 C 1757.61 520.043 1764.46 527.41 1771.96 533.723 C 1778.76 539.445 1800.28 552.338 1803.88 558.43 C 1804.23 572.331 1792 577.01 1785.52 587.437 C 1779.66 596.86 1777.96 609.963 1773.11 620.298 C 1766.2 635.035 1756.53 654.691 1739.84 660.215 C 1727.99 664.134 1716.48 661.171 1705.66 655.965 C 1704.18 644.379 1701 636.714 1691.64 629.062 C 1678.77 618.542 1660.6 612.894 1644.05 614.544 C 1619.54 616.989 1598.32 633.818 1583.4 652.45 C 1564.03 676.619 1561.99 700.249 1565.45 730.164 C 1557.12 721.608 1549.82 712.182 1541.25 703.807 C 1543.72 694.474 1546.85 685.329 1550.62 676.441 C 1562.81 648.274 1586.62 609.642 1616.61 597.869 C 1647.07 585.905 1677.72 595.711 1697.55 621.25 C 1704.09 629.676 1711.55 647.443 1721.91 651.374 C 1728.4 653.856 1735.63 653.466 1741.81 650.303 C 1755.25 643.565 1761.98 628.972 1766.12 615.339 C 1742.79 614.018 1717.19 614.016 1696.31 602.068 C 1683.33 594.639 1674.29 583.23 1658.79 580.055 C 1644.64 577.156 1630.84 581.104 1616.77 582.023 C 1608.92 582.536 1601.4 581.601 1595.39 576.1 C 1583.16 564.902 1588.88 526.112 1588.02 509.783 C 1582.39 525.085 1576.47 542.007 1574.63 558.204 C 1573.52 567.969 1574.55 579.069 1581.16 586.874 C 1585.74 592.282 1591.13 593.817 1597.88 594.406 L 1599.45 594.536 L 1599.92 595.278 C 1598.45 595.506 1596.93 595.704 1595.49 596.059 C 1577.02 600.611 1550.72 647.079 1541.13 663.037 C 1534.58 653.422 1528.64 643.369 1521.51 634.159 C 1495.73 600.811 1461.36 578.185 1420.91 566.9 C 1432.13 573.032 1443.24 579.927 1453.54 587.491 C 1485.92 611.257 1516.64 646.256 1522.88 687.171 C 1516.92 681.076 1510.89 675.142 1504.46 669.543 C 1462.9 633.328 1410.15 604.038 1354.93 597.254 C 1337.02 595.054 1319.08 595.559 1301.12 596.828 C 1314.05 598.63 1326.94 600.629 1339.81 602.826 C 1400.37 613.463 1456.35 642.059 1500.46 684.903 C 1513.07 697.078 1524.4 710.822 1536.01 723.961 C 1556.22 746.841 1576 769.853 1593.5 794.893 C 1592.8 833.652 1588.79 877.44 1578.05 914.833 C 1573.22 931.683 1566.5 947.973 1559.86 964.173 C 1566.57 975.981 1575.48 986.677 1583.66 997.49 C 1593.39 1010.4 1602.96 1023.43 1612.36 1036.58 C 1646.26 1084.53 1681.4 1131.61 1717.73 1177.75 C 1732.89 1197.07 1747.47 1217.03 1764.11 1235.12 C 1771.69 1243.36 1779.1 1251.15 1789.6 1255.51 C 1797.64 1254.01 1804.73 1250.01 1812.64 1248.55 C 1821.09 1246.99 1829.79 1251.27 1836.59 1255.9 C 1850.31 1265.26 1861.1 1279.87 1863.87 1296.47 C 1864.4 1299.64 1864.58 1302.3 1862.56 1305.01 C 1852.9 1308.96 1782.33 1306.92 1767.25 1307 C 1761.16 1298.98 1755.47 1290.66 1748.84 1283.07 C 1735.26 1267.54 1720.02 1253.05 1705.97 1237.9 C 1645.49 1172.63 1588.96 1118.49 1515.16 1068.07 C 1477.3 1042.2 1443.58 1022.13 1400.09 1006.6 C 1403.49 996.806 1406.96 987.01 1409.61 976.976 C 1422.59 927.776 1412.86 877.392 1387.24 833.926 C 1382.48 825.862 1345.04 772.356 1338.09 770.576 C 1343.25 780.291 1351.16 788.718 1357.16 797.98 C 1373.14 822.654 1386.52 850.192 1395.18 878.317 C 1407.64 918.786 1407.91 960.07 1387.84 998.069 L 1378.1 991.302 C 1313.41 1015.35 1254.94 1006.81 1191.45 986.444 C 1154.49 974.591 1119.07 959.744 1083.66 943.898 C 1064.44 935.297 1045.54 925.99 1026.01 918.102 C 1034.22 941.591 1037.23 965.692 1036.11 990.503 C 1034.07 1035.45 1015.4 1080.89 983.139 1112.59 C 973.52 1122.05 962.157 1129.49 952.241 1138.59 C 947.085 1143.33 938.536 1151.39 938.72 1158.81 C 938.82 1162.85 941.844 1168.86 943.373 1172.66 C 953.935 1198.89 969.54 1226.56 990.796 1245.53 C 1005.21 1258.4 1017.63 1251.88 1034.31 1251.51 C 1044.98 1251.28 1054.55 1255.34 1062.14 1262.78 C 1075.46 1275.84 1080.78 1294.11 1081 1312.31 C 1049.96 1312.26 1018.93 1312.48 987.903 1312.95 C 981.272 1304.5 975.727 1295.23 969.191 1286.69 C 958.652 1272.92 946.845 1260.36 935.026 1247.69 C 908.936 1221.23 883.312 1194.08 856.499 1168.36 C 860.598 1164.35 864.582 1160.23 868.447 1156 C 887.063 1135.44 894.333 1110.56 892.868 1083.04 C 891.728 1061.62 885.622 1038.98 868.784 1024.48 C 857.92 1015.13 847.152 1013.13 833.351 1014.15 C 812.053 1042.93 789.7 1066.95 761.392 1088.91 C 791.718 1050.02 816.092 1009.54 835.93 964.251 C 857.829 914.26 874.916 861.434 906.096 816.095 C 923.444 790.87 945.286 772.952 965.949 751.019 L 966.73 750.179 C 894.46 798.619 867.146 872.453 833.324 948.193 C 824.858 967.153 815.226 985.769 805.444 1004.08 C 790.758 1031.56 772.598 1060.31 749.338 1081.42 C 691.585 1133.84 625.06 1108.02 569.244 1149.21 C 559.996 1156.03 551.524 1163.84 543.98 1172.51 C 527.644 1191.31 498.234 1235.96 494.543 1260.22 C 499.333 1268.08 522.075 1262.6 534.435 1275.58 C 545.127 1286.81 545.068 1301.6 544.967 1316.05 L 439.25 1316.38 C 439.13 1300.52 436.62 1264.08 440.659 1250.6 C 443.717 1240.39 454.175 1231.93 460.168 1223.18 C 485.708 1185.9 507.596 1141.42 514.054 1096.57 C 538.322 1093.38 561.095 1088.16 581.454 1073.83 C 639.63 1032.9 665.97 921.605 690.675 856.075 C 700.525 829.947 711.88 804.195 726.845 780.555 C 741.481 757.436 759.118 736.54 780.606 719.458 C 789.021 712.769 798.237 707.086 806.427 700.131 L 807.255 699.416 C 765.638 716.493 737.739 746.823 707.359 778.377 C 678.107 808.759 646.898 837.275 620.188 870.074 C 596.538 899.115 575.884 930.518 553.141 960.23 C 509.457 1017.3 455.142 1069.4 385.338 1091.81 C 319.967 1112.52 249.058 1106.52 188.1 1075.11 C 152.717 1056.68 96.7853 1015.02 85.4564 975.784 C 82.5272 965.641 83.6252 956.092 89.0806 947.037 C 93.4645 939.707 100.655 934.489 108.982 932.594 C 139.091 926.027 152.538 962.471 168.67 980.775 C 179.631 993.213 193.471 1004.24 207.44 1013.12 C 262.873 1048.34 335.317 1049.3 394.535 1023.44 C 488.867 982.229 539.133 885.935 604.789 812.418 C 633.227 780.237 666.273 752.444 702.851 729.943 C 771.355 688.045 848.296 670.206 928.003 670.415 C 953.186 670.481 978.3 672.863 1003.46 673.731 C 1062.03 675.752 1118.31 670.273 1174.06 651.694 C 1261.11 622.688 1327.84 559.325 1404.43 511.916 C 1446.75 485.242 1493.33 465.985 1542.13 454.973 L 1541.71 453.865 L 1541.05 452.009 C 1535.83 437.77 1533.41 422.836 1528.31 408.535 z"/>
<path transform="translate(0,0)" fill="rgb(255,255,255)" d="M 1233.89 677.539 C 1239.6 680.305 1245.01 686.912 1249.61 691.357 C 1283.49 724.209 1313.6 760.743 1339.37 800.28 C 1369.95 848.221 1391.65 906.249 1378.93 963.589 C 1274.71 999.912 1182.93 960.948 1088.37 918.462 C 1056.78 904.27 1026.53 888.873 992.064 882.585 C 956.532 876.102 921.07 879.933 886.856 890.979 C 896.417 868.954 906.102 846.984 915.909 825.068 C 966.523 829.361 1009.05 840.708 1055.26 861.344 C 1075.69 869.968 1096.29 880.783 1114.98 892.725 C 1105.02 881.959 1093.6 872.715 1083.83 861.66 C 1042.13 813.798 1011.8 757.128 995.098 695.89 C 1006.8 717.01 1016.85 738.94 1029.08 759.809 C 1061.68 815.39 1108.72 870.144 1168.43 896.769 C 1230.34 924.37 1300.76 912.546 1361.8 888.893 C 1340.09 827.158 1305.77 772.348 1266.86 720.039 C 1256.16 705.651 1244.45 692.037 1233.89 677.539 z"/>
<path transform="translate(0,0)" fill="rgb(255,255,255)" d="M 939.495 904.398 C 959.14 900.828 983.342 904.84 1002.58 909.109 C 1010.17 948.829 1012.04 990.039 997.144 1028.41 C 983.112 1064.56 956.114 1095.74 925.139 1118.55 C 920.079 1122.28 914.712 1127.1 908.955 1129.65 L 908.749 1128.51 C 913.847 1116.52 917.494 1104.88 918.214 1091.78 C 919.736 1064.09 910.035 1033.61 891.33 1012.9 C 878.185 998.354 862.941 991.584 843.481 990.514 C 852.924 967.427 866.856 943.691 878.022 921.096 C 897.742 911.274 917.636 906.618 939.495 904.398 z"/>
<path transform="translate(0,0)" fill="rgb(255,255,255)" d="M 1415.5 646.751 C 1416.21 646.861 1417.23 646.988 1417.96 647.195 C 1426.5 649.62 1436.16 656.293 1443.59 661.145 C 1481.61 685.9 1513.38 719.132 1536.39 758.23 C 1563.05 803.308 1579.32 857.094 1566.2 909.07 L 1564.93 912.251 C 1563.56 910.899 1562.87 884.588 1562.45 880.612 C 1561.53 871.838 1560.13 863.12 1558.26 854.497 C 1539.94 769.127 1488.63 694.456 1415.5 646.751 z"/>
<path transform="translate(0,0)" fill="rgb(255,255,255)" d="M 1763.03 562.732 C 1767.36 563.2 1774.76 568.635 1777.7 571.846 C 1781.2 575.707 1782.96 580.841 1782.56 586.04 C 1782.17 592.096 1779.28 597.72 1774.59 601.565 C 1768.04 606.864 1762.5 605.652 1754.75 604.812 C 1749.47 604.057 1740.26 603.842 1736.77 599.318 C 1735.12 597.187 1735 595.051 1735.51 592.5 C 1737.7 581.433 1753.91 568.528 1763.03 562.732 z"/>
<path transform="translate(0,0)" fill="rgb(255,255,255)" d="M 1763.31 1260.22 C 1770.28 1261.98 1776.99 1263.48 1784.22 1263.57 C 1795.54 1263.71 1809.97 1258.88 1820.57 1263.55 C 1829.7 1267.57 1834.94 1276.75 1838.49 1285.6 C 1833.62 1288.73 1790.92 1286.95 1782.23 1286.89 C 1777.97 1281.29 1764.6 1266.44 1763.31 1260.22 z"/>
<path transform="translate(0,0)" fill="rgb(255,255,255)" d="M 1674.03 479.958 C 1690.47 481.497 1715.89 494.199 1729.12 494.193 C 1729.68 492.077 1729.01 490.508 1728.39 488.492 L 1728.09 487.563 L 1729.03 486.472 C 1731.05 486.968 1732.03 486.931 1733.26 488.764 C 1735.64 492.317 1737.25 498.105 1738.81 502.128 C 1744.44 516.587 1749.68 528.467 1759.88 540.258 C 1770.49 541.066 1777.25 546.525 1785.58 552.62 C 1783.98 556.965 1778.79 559.063 1774.99 561.261 C 1760.41 552.936 1745.41 542.696 1734.11 530.202 C 1734.81 526.148 1736.33 520.692 1735.8 516.638 C 1735.42 513.697 1734.43 511.996 1732.2 510.107 C 1717.5 497.644 1691.12 493.451 1674.84 480.624 C 1674.57 480.407 1674.3 480.18 1674.03 479.958 z"/>
<path transform="translate(0,0)" fill="rgb(255,255,255)" d="M 470.974 1262.39 C 477.818 1263.94 481.691 1268.88 486.403 1273.72 C 496.798 1274.63 513.582 1274.88 521.099 1283.15 C 523.675 1285.98 524.097 1288.81 523.898 1292.51 C 522.056 1295.04 521.114 1295.02 518.225 1296.02 C 506.961 1296.15 474.748 1299.74 466.788 1292.98 C 464.279 1290.85 463.155 1287.83 463.034 1284.61 C 462.715 1276.17 465.378 1268.59 470.974 1262.39 z"/>
<path transform="translate(0,0)" fill="rgb(255,255,255)" d="M 213.455 1031.96 C 222.831 1033.84 232.95 1039.93 241.832 1043.75 C 223.741 1050.24 207.686 1059.7 188.92 1065.07 C 178.471 1058.72 167.962 1052.49 157.951 1045.47 C 177.173 1044.47 195.319 1037.91 213.455 1031.96 z"/>
<path transform="translate(0,0)" fill="rgb(255,255,255)" d="M 1019.9 1263.43 C 1026.21 1263.09 1031.39 1263.28 1037.12 1266.18 C 1044.81 1270.06 1053.78 1276.69 1056.64 1285.13 C 1056.4 1287.2 1056.45 1288.22 1054.76 1289.69 C 1051.57 1292.46 1038.7 1291.57 1034.22 1291.69 C 1025.48 1292.16 1016.91 1292.06 1008.24 1290.74 C 1004.04 1286.68 998.507 1281.8 998.149 1275.53 C 998.001 1272.93 998.864 1270.96 1000.57 1269.06 C 1005.31 1263.76 1013.38 1263.9 1019.9 1263.43 z"/>
<path transform="translate(0,0)" fill="rgb(255,255,255)" d="M 363.935 1049.2 L 365.08 1050.44 C 356.1 1065.52 343.583 1080.13 331.822 1093.12 C 320.265 1095.04 308.861 1095.08 297.19 1094.94 L 296.511 1094.38 C 297.322 1091.14 307.352 1084.24 310.359 1081.23 C 318.136 1073.47 324.968 1064.72 332.526 1056.72 C 342.468 1053.34 353.66 1051.68 363.935 1049.2 z"/>
<path transform="translate(0,0)" fill="rgb(255,255,255)" d="M 271.836 1052.74 C 281.47 1052.99 291.303 1054.66 300.983 1055.19 C 286.517 1066.71 274.653 1082.98 256.823 1089.71 C 245.849 1088.22 235.362 1084.62 224.937 1081.02 C 241.714 1073.39 256.263 1062.46 271.836 1052.74 z"/>
<path transform="translate(0,0)" fill="rgb(255,255,255)" d="M 1534.93 421.806 C 1539.11 425.249 1542.8 430.681 1546.28 434.85 C 1560.39 451.731 1581.44 481.698 1604.19 486.161 C 1606.09 486.534 1607.6 486.8 1609.37 487.653 L 1607.64 489.196 C 1604.8 490.214 1601.96 491.004 1599.03 491.709 C 1589.37 494.029 1582.56 494.936 1573.81 489.299 C 1552.66 475.668 1539.74 445.489 1534.93 421.806 z"/>
<path transform="translate(0,0)" fill="rgb(255,255,255)" d="M 652.517 1025.69 C 662.802 1022.6 673.664 1028.32 676.932 1038.55 C 680.2 1048.78 674.67 1059.74 664.501 1063.19 C 657.761 1065.48 650.312 1063.95 645.018 1059.19 C 639.724 1054.43 637.41 1047.19 638.964 1040.24 C 640.519 1033.3 645.701 1027.73 652.517 1025.69 z"/>
<path transform="translate(0,0)" fill="rgb(255,255,255)" d="M 494.762 969.832 C 494.807 970.828 494.817 970.437 494.661 971.833 C 493.956 978.149 490.612 985.192 488.838 991.414 C 479.173 1025.3 476.276 1026.49 448.952 1048.45 C 448.876 1048.07 448.717 1047.7 448.725 1047.32 C 448.837 1041.51 452.453 1034.3 454.167 1028.67 C 456.463 1021.12 458.139 1013.09 461.161 1005.81 C 467.128 991.445 483.474 980.415 494.762 969.832 z"/>
<path transform="translate(0,0)" fill="rgb(255,255,255)" d="M 428.839 1022.08 L 429.571 1023.44 C 426.541 1036.13 418.314 1052.01 411.723 1063.39 C 403.464 1077.65 390.51 1078.65 375.829 1082.58 C 374.925 1080.32 375.869 1080.38 377.161 1078.56 C 386.078 1066.04 394.244 1053.29 398.421 1038.34 C 409.178 1033.85 418.933 1028.17 428.839 1022.08 z"/>
<path transform="translate(0,0)" fill="rgb(255,255,255)" d="M 695.532 945.679 C 705.299 942.291 715.957 947.505 719.278 957.295 C 722.599 967.085 717.312 977.707 707.499 980.96 C 697.781 984.182 687.285 978.958 683.996 969.262 C 680.708 959.567 685.86 949.035 695.532 945.679 z"/>
<path transform="translate(0,0)" fill="rgb(255,255,255)" d="M 1529.77 895.405 C 1539.53 892.656 1549.66 898.373 1552.35 908.147 C 1555.04 917.92 1549.26 928.015 1539.47 930.643 C 1529.76 933.249 1519.78 927.53 1517.11 917.842 C 1514.45 908.154 1520.1 898.131 1529.77 895.405 z"/>
<path transform="translate(0,0)" fill="rgb(255,255,255)" d="M 742.324 1010.04 C 749.801 1008.54 757.383 1012.08 761.033 1018.78 C 764.683 1025.47 763.552 1033.76 758.241 1039.24 C 755.876 1041.67 752.85 1043.37 749.535 1044.11 C 743.419 1045.47 737.043 1043.44 732.837 1038.8 C 728.632 1034.15 727.246 1027.61 729.209 1021.66 C 731.172 1015.71 736.18 1011.27 742.324 1010.04 z"/>
<path transform="translate(0,0)" fill="rgb(255,255,255)" d="M 1528.38 494.202 L 1528.71 494.277 L 1528.9 494.901 C 1505.53 506.046 1484.27 520.464 1464.04 536.566 C 1456.05 542.929 1448.28 552.872 1439.16 557.299 C 1434.49 559.567 1427.4 559.267 1422.22 560.004 L 1421.07 559.999 L 1420.46 559.201 C 1450.59 531.439 1488.89 505.57 1528.38 494.202 z"/>
<path transform="translate(0,0)" fill="rgb(255,255,255)" d="M 637.926 800.794 C 638.121 801.971 638.183 802.116 638.186 803.5 C 638.242 830.322 628.899 844.91 611.038 863.727 C 610.19 852.855 610.01 842.008 609.825 831.11 C 618.184 819.956 627.873 810.381 637.926 800.794 z"/>
<path transform="translate(0,0)" fill="rgb(255,255,255)" d="M 718.933 738.144 L 719.498 739.359 C 714.631 745.487 709.3 750.967 704.816 757.449 C 689.337 779.825 691.024 783.902 667.103 801.008 C 666.587 800.5 666.47 799.705 666.19 799.038 C 668.086 791.199 669.815 782.427 673.45 775.21 C 681.667 758.896 704.013 747.862 718.933 738.144 z"/>
<path transform="translate(0,0)" fill="rgb(255,255,255)" d="M 583.734 858.954 L 584.398 860.226 C 582.262 897.43 584.102 896.084 563.112 927.374 L 562.478 927.092 C 560.545 919.31 563.042 896.765 563.305 887.466 C 569.078 877.401 576.649 868.128 583.734 858.954 z"/>
<path transform="translate(0,0)" fill="rgb(255,255,255)" d="M 537.649 919.724 C 537.852 920.661 537.95 920.977 538.012 922.051 C 539.672 951.089 535.187 966.808 515.43 988.253 C 515.258 987.45 515.048 986.653 514.996 985.829 C 514.727 981.553 516.458 976.298 516.865 971.912 C 519.376 944.906 521.071 941.002 537.649 919.724 z"/>
<path transform="translate(0,0)" fill="rgb(255,255,255)" d="M 725.934 869.664 C 734.286 867.254 743.005 872.1 745.369 880.466 C 747.732 888.832 742.838 897.524 734.46 899.841 C 726.146 902.141 717.536 897.293 715.191 888.992 C 712.845 880.691 717.645 872.055 725.934 869.664 z"/>
<path transform="translate(0,0)" fill="rgb(255,255,255)" d="M 1539.26 1005.59 C 1544.2 1003.87 1549.68 1004.93 1553.61 1008.38 C 1557.54 1011.82 1559.32 1017.11 1558.27 1022.23 C 1557.21 1027.35 1553.48 1031.51 1548.51 1033.12 C 1540.94 1035.56 1532.82 1031.46 1530.28 1023.92 C 1527.75 1016.39 1531.75 1008.22 1539.26 1005.59 z"/>
<path transform="translate(0,0)" fill="rgb(255,255,255)" d="M 782.09 918.257 C 789.632 916.445 797.244 920.974 799.25 928.467 C 801.255 935.96 796.924 943.686 789.486 945.884 C 784.5 947.357 779.108 946.01 775.401 942.365 C 771.695 938.72 770.258 933.351 771.648 928.341 C 773.038 923.332 777.036 919.471 782.09 918.257 z"/>
<path transform="translate(0,0)" fill="rgb(255,255,255)" d="M 1471.23 957.712 C 1478.55 955.582 1486.22 959.735 1488.43 967.026 C 1490.65 974.318 1486.58 982.033 1479.31 984.33 C 1474.54 985.84 1469.32 984.666 1465.65 981.258 C 1461.99 977.85 1460.43 972.733 1461.59 967.861 C 1462.74 962.988 1466.42 959.112 1471.23 957.712 z"/>
<path transform="translate(0,0)" fill="rgb(255,255,255)" d="M 1512.67 806.729 C 1519.93 805.667 1526.66 810.69 1527.72 817.942 C 1528.77 825.195 1523.74 831.928 1516.49 832.974 C 1509.24 834.019 1502.52 828.999 1501.47 821.756 C 1500.42 814.514 1505.43 807.788 1512.67 806.729 z"/>
<path transform="translate(0,0)" fill="rgb(255,255,255)" d="M 1459.48 861.441 C 1466.57 859.797 1473.66 864.204 1475.33 871.295 C 1476.99 878.386 1472.6 885.487 1465.52 887.173 C 1458.4 888.866 1451.27 884.457 1449.59 877.337 C 1447.92 870.216 1452.35 863.092 1459.48 861.441 z"/>
<path transform="translate(0,0)" fill="rgb(255,255,255)" d="M 594.744 1084.2 C 601.742 1083.17 608.252 1088 609.3 1095 C 610.348 1101.99 605.538 1108.51 598.546 1109.58 C 591.527 1110.65 584.973 1105.82 583.922 1098.8 C 582.87 1091.78 587.72 1085.23 594.744 1084.2 z"/>
<path transform="translate(0,0)" fill="rgb(255,255,255)" d="M 1595.28 1056.68 C 1601.77 1055.11 1608.31 1059.07 1609.94 1065.54 C 1611.57 1072.01 1607.68 1078.59 1601.23 1080.29 C 1596.99 1081.4 1592.48 1080.15 1589.43 1077.02 C 1586.37 1073.89 1585.23 1069.35 1586.44 1065.14 C 1587.65 1060.94 1591.03 1057.7 1595.28 1056.68 z"/>
<path transform="translate(0,0)" fill="rgb(255,255,255)" d="M 767.987 801.293 C 774.152 798.892 781.101 801.897 783.574 808.032 C 786.047 814.168 783.125 821.152 777.019 823.697 C 773.005 825.371 768.401 824.757 764.965 822.09 C 761.529 819.423 759.792 815.115 760.418 810.811 C 761.044 806.507 763.935 802.872 767.987 801.293 z"/>
<path transform="translate(0,0)" fill="rgb(255,255,255)" d="M 1641.06 1114.93 C 1646.77 1112.42 1653.42 1114.97 1656.01 1120.64 C 1658.59 1126.31 1656.13 1133 1650.49 1135.65 C 1646.78 1137.4 1642.42 1137.01 1639.07 1134.64 C 1635.72 1132.27 1633.9 1128.29 1634.32 1124.21 C 1634.73 1120.12 1637.31 1116.58 1641.06 1114.93 z"/>
<path transform="translate(0,0)" fill="rgb(255,255,255)" d="M 829.983 843.981 C 831.491 843.936 833.028 843.852 834.535 844.005 C 837.782 844.335 840.89 846.184 842.896 848.733 C 844.788 851.137 845.69 854.161 844.897 857.198 C 843.851 861.203 840.944 863.299 837.547 865.238 C 835.229 865.289 832.713 865.427 830.44 864.923 C 827.347 864.238 824.546 862.094 822.966 859.363 C 821.742 857.248 821.526 854.926 822.157 852.596 C 823.334 848.244 826.314 846.212 829.983 843.981 z"/>
<path transform="translate(0,0)" fill="rgb(255,255,255)" d="M 537.844 1110.2 C 541.557 1108.73 545.773 1109.37 548.878 1111.88 C 551.982 1114.4 553.492 1118.38 552.83 1122.32 C 552.167 1126.26 549.434 1129.53 545.678 1130.89 C 539.993 1132.95 533.712 1130.06 531.572 1124.4 C 529.432 1118.75 532.224 1112.43 537.844 1110.2 z"/>
<path transform="translate(0,0)" fill="rgb(255,255,255)" d="M 957.158 1114.82 L 958.227 1115.19 L 957.856 1116.36 C 938.181 1132.51 921.984 1144.39 896.177 1148.03 L 895.093 1147.79 L 894.624 1146.91 C 914.196 1135.15 936.724 1125.39 957.158 1114.82 z"/>
<path transform="translate(0,0)" fill="rgb(255,255,255)" d="M 900.619 1157.39 C 904.423 1156.1 908.628 1156.98 911.589 1159.7 C 914.551 1162.41 915.798 1166.52 914.844 1170.42 C 913.89 1174.33 910.886 1177.4 907.006 1178.44 C 901.27 1179.98 895.346 1176.69 893.621 1171.01 C 891.897 1165.32 894.994 1159.3 900.619 1157.39 z"/>
<path transform="translate(0,0)" fill="rgb(255,255,255)" d="M 517.201 1163.98 C 518.834 1163.92 520.436 1163.85 522.053 1164.14 C 524.966 1164.68 527.895 1166.21 529.335 1168.93 C 530.393 1170.92 530.451 1173.33 529.924 1175.48 C 528.658 1180.64 525.309 1183.23 520.97 1185.87 C 519.742 1185.87 519.846 1185.9 518.416 1185.75 C 514.789 1185.36 511.341 1184.02 509.408 1180.72 C 508.206 1178.67 508.027 1176.31 508.516 1174.02 C 509.618 1168.88 512.943 1166.59 517.201 1163.98 z"/>
<path transform="translate(0,0)" fill="rgb(255,255,255)" d="M 1692.48 1168.49 C 1698.1 1167.24 1703.66 1170.8 1704.86 1176.43 C 1706.06 1182.05 1702.44 1187.58 1696.8 1188.73 C 1691.24 1189.87 1685.8 1186.3 1684.61 1180.75 C 1683.43 1175.19 1686.94 1169.72 1692.48 1168.49 z"/>
<path transform="translate(0,0)" fill="rgb(255,255,255)" d="M 1736.2 1224.01 C 1740.43 1224.09 1743.62 1224.4 1746.87 1227.38 C 1749.12 1229.44 1750.7 1232.03 1750.61 1235.19 C 1750.49 1239.18 1748.27 1241.16 1745.4 1243.42 C 1741.07 1243.38 1737.94 1243.28 1734.52 1240.42 C 1732.03 1238.33 1730.45 1235.94 1730.57 1232.55 C 1730.72 1228.27 1733.14 1226.44 1736.2 1224.01 z"/>
<path transform="translate(0,0)" fill="rgb(255,255,255)" d="M 480.145 1227.07 C 485.077 1225.68 490.216 1228.49 491.706 1233.4 C 493.196 1238.3 490.489 1243.49 485.616 1245.08 C 482.377 1246.14 478.82 1245.36 476.317 1243.05 C 473.814 1240.73 472.755 1237.25 473.549 1233.94 C 474.344 1230.62 476.866 1228 480.145 1227.07 z"/>
<path transform="translate(0,0)" fill="rgb(255,255,255)" d="M 847.616 775.388 C 850.366 773.929 853.694 774.096 856.284 775.823 C 858.874 777.55 860.308 780.559 860.017 783.658 C 859.727 786.757 857.76 789.447 854.894 790.663 C 850.72 792.435 845.892 790.604 843.941 786.511 C 841.991 782.417 843.611 777.514 847.616 775.388 z"/>
<path transform="translate(0,0)" fill="rgb(255,255,255)" d="M 1447.27 766.523 C 1451.36 765.072 1455.87 767.087 1457.53 771.104 C 1459.18 775.12 1457.39 779.728 1453.46 781.58 C 1450.74 782.862 1447.53 782.541 1445.12 780.744 C 1442.71 778.946 1441.48 775.965 1441.93 772.989 C 1442.38 770.014 1444.43 767.528 1447.27 766.523 z"/>
<path transform="translate(0,0)" fill="rgb(255,255,255)" d="M 934.129 1203.68 C 937.95 1201.7 942.655 1203.15 944.69 1206.94 C 946.725 1210.74 945.336 1215.46 941.571 1217.55 C 939.089 1218.93 936.058 1218.86 933.639 1217.37 C 931.22 1215.89 929.786 1213.22 929.888 1210.38 C 929.989 1207.55 931.61 1204.99 934.129 1203.68 z"/>
<path transform="translate(0,0)" fill="rgb(255,255,255)" d="M 968.792 1247.46 C 971.512 1247.78 973.674 1248.14 976.045 1249.59 C 978.735 1251.25 979.352 1252.94 979.933 1255.92 C 979.166 1259.08 977.632 1260.16 975.232 1262.1 C 972.354 1262.13 969.033 1262.38 966.658 1260.42 C 965.495 1259.47 964.667 1258.31 964.474 1256.82 C 963.953 1252.81 966.41 1250.3 968.792 1247.46 z"/>
<path transform="translate(0,0)" fill="rgb(255,255,255)" d="M 1695.52 507.039 C 1701.26 509.467 1708 510.952 1713.03 514.513 C 1714.46 517.52 1713.9 518.442 1713.33 521.643 C 1710.82 522.671 1707.96 523.542 1705.3 522.492 C 1699.57 520.234 1697.32 512.27 1695.52 507.039 z"/>
<path transform="translate(0,0)" fill="rgb(255,255,255)" d="M 495.178 1209.34 C 497.171 1207.67 500.136 1207.94 501.808 1209.92 C 503.479 1211.91 503.226 1214.88 501.242 1216.55 C 499.251 1218.24 496.273 1217.98 494.595 1215.99 C 492.918 1213.99 493.179 1211.01 495.178 1209.34 z"/>
<path transform="translate(0,0)" fill="rgb(69,71,98)" d="M 1284.06 1018.02 C 1286.22 1018.08 1288.2 1018.36 1290.23 1019.12 C 1293.15 1020.21 1295.5 1022.36 1296.53 1025.34 C 1297.4 1027.85 1296.9 1031.07 1295.9 1033.44 C 1289.29 1049.05 1272.32 1073.33 1262.95 1088.71 C 1236.26 1132.69 1209.3 1176.5 1182.05 1220.13 C 1168.9 1241.28 1150.81 1266.56 1140.55 1288.3 C 1186.51 1289.63 1232.82 1288.37 1278.82 1288.39 L 1539.78 1288.73 L 1638.82 1288.61 C 1654.59 1288.58 1672.29 1286.98 1687.79 1289.28 C 1690.73 1289.72 1693.24 1291.47 1694.78 1294.1 C 1695.93 1296.04 1696.14 1297.84 1695.66 1300.02 C 1692.88 1312.71 1655.54 1369.03 1646.68 1383.36 L 1568.42 1510.11 C 1533.33 1567.62 1497.91 1624.93 1462.15 1682.03 C 1448.43 1704.04 1435.47 1726.71 1421.15 1748.32 C 1418.19 1752.78 1415.31 1755.83 1410.88 1758.92 C 1394.07 1759.82 1376.94 1759.16 1360.09 1759.14 L 1267.79 1759.09 L 983.979 1759.1 L 750.83 1759.1 L 677.037 1759.21 C 660.042 1759.24 642.946 1759.73 625.993 1758.4 C 616.329 1749.57 599.822 1718.65 592.05 1705.93 C 567.499 1665.97 543.152 1625.9 519.01 1585.69 L 258.939 1161.46 C 255.157 1155.67 250.802 1150 250.493 1142.83 C 250.331 1139.07 251.131 1135.21 254.054 1132.6 C 256.301 1130.58 259.371 1129.99 262.271 1130.6 C 265.443 1131.27 268.324 1133.32 270.215 1135.91 C 274.355 1141.6 277.784 1148.29 281.497 1154.29 C 290.706 1169.14 299.814 1184.04 308.82 1199.01 L 378.753 1313.28 L 638.033 1736.1 L 1400.9 1735.94 L 1599.52 1414.74 C 1620.74 1380.1 1643.73 1346.51 1663.83 1311.19 L 1271.08 1311.07 L 1168.21 1311.15 C 1152.61 1311.2 1134.34 1313.15 1119 1310.65 C 1116.05 1310.17 1111.79 1307.78 1110.37 1304.99 C 1108.12 1300.57 1110.07 1293.87 1111.85 1289.66 C 1116.17 1279.46 1123.26 1269.8 1129.16 1260.45 C 1139.35 1244.44 1149.41 1228.34 1159.32 1212.16 L 1228.89 1098.56 C 1243.32 1074.87 1257.15 1049.81 1273.23 1027.26 C 1276.49 1022.69 1278.79 1020.1 1284.06 1018.02 z"/>
<path transform="translate(0,0)" fill="rgb(69,71,98)" d="M 1359.87 290.489 C 1363.53 290.412 1367.4 290.399 1370.97 291.296 C 1375.62 292.465 1378.48 295.728 1381.34 299.338 C 1392.72 313.694 1401.61 331.082 1411.22 346.711 C 1431.77 380.117 1452.12 413.827 1473.63 446.619 C 1466.73 450.348 1459.48 453.328 1452.28 456.415 C 1439.8 433.856 1424.61 412.051 1410.95 390.152 C 1394.92 364.448 1379.83 337.892 1362.41 313.109 L 1133.38 313 L 1227.18 468.953 C 1244.28 496.804 1270.48 534.481 1283.44 563.542 C 1277.38 567.22 1271.57 571.518 1265.71 575.523 C 1253.27 557.38 1242.61 538.084 1231.04 519.391 C 1210.77 486.868 1190.79 454.168 1171.1 421.295 C 1149.62 385.116 1128.58 348.38 1105.67 313.093 L 671.787 312.943 C 644.911 354.825 618.431 396.96 592.351 439.342 L 492.542 597.54 C 473.051 630.008 452.112 661.75 431.866 693.754 L 352.54 820.576 L 278.197 938.781 C 267.151 956.361 256.853 974.898 245.19 992.01 C 243.698 994.199 242.664 995.673 240.181 996.843 C 236.674 997.075 232.747 997.005 229.716 994.935 C 227.088 993.14 225.866 990.006 225.585 986.953 C 224.964 980.185 228.012 973.586 231.397 967.92 C 242.926 948.622 255.685 929.864 267.797 910.914 L 323.848 822.231 L 514.507 519.445 L 610.651 366.66 L 639.034 320.445 C 644.36 311.781 649.705 301.598 656.448 294.019 C 659.319 290.792 670.924 290.729 675.265 290.588 C 698.999 289.82 722.959 290.576 746.723 290.62 L 882.17 290.691 L 1359.87 290.489 z"/>
<path transform="translate(0,0)" fill="rgb(20,27,67)" d="M 1607.42 834.298 C 1614.61 837.141 1622.91 847.671 1629.1 852.822 C 1641.43 863.081 1656.19 873.712 1670.98 880.101 C 1719.84 901.208 1786.81 898.394 1831.88 920.949 C 1852.27 931.152 1861.71 957.93 1879.27 972.023 C 1895.4 984.963 1919.39 992.766 1937.21 1005.5 C 1942.99 1019.08 1944.09 1036.34 1943.49 1050.94 C 1943.24 1057.04 1942.85 1063.73 1938.12 1068.12 C 1934.85 1069.46 1932.32 1069.48 1928.82 1068.97 C 1910.17 1066.26 1869.63 1051.77 1858.52 1036.85 C 1842.85 1012.83 1836.66 988.096 1814.49 967.769 C 1805.56 959.591 1795.58 953.2 1783.82 950.053 C 1747.13 940.237 1655.53 951.877 1615.97 957.531 C 1610.45 958.32 1589.17 963.01 1584.93 961.366 C 1582.16 954.373 1587.93 942.467 1590.79 935.918 C 1598.48 918.321 1603.17 909.739 1621.57 902.553 C 1643.91 907.503 1663.59 908.6 1686.34 907.527 C 1662.99 900.175 1631.69 894.126 1614.09 876.096 C 1603.73 865.486 1606.93 847.871 1607.42 834.298 z"/>
<path transform="translate(0,0)" fill="rgb(255,255,255)" d="M 1868.58 988.043 C 1881.62 988.243 1895.54 995.272 1906.55 1001.85 C 1914.4 1006.55 1922.43 1013 1924.31 1022.5 C 1925.35 1027.74 1926.36 1038.23 1923.41 1042.65 L 1920.68 1042.62 C 1905.74 1037.95 1884.25 1032.92 1873.34 1020.95 C 1867.54 1014.58 1862.31 1002.37 1862.68 993.572 C 1864.11 990.61 1865.88 989.659 1868.58 988.043 z"/>
<path transform="translate(0,0)" fill="rgb(255,255,255)" d="M 1806.01 917.876 C 1809.86 917.634 1815.04 917.689 1818.03 920.598 C 1819.96 922.469 1820.91 924.134 1820.85 926.896 C 1820.78 929.893 1818.39 932.18 1816.49 934.224 C 1813.5 934.891 1810.48 934.989 1807.69 933.592 C 1805.27 932.374 1803.55 930.525 1802.89 927.828 C 1801.86 923.64 1803.66 921.032 1806.01 917.876 z"/>
<path transform="translate(0,0)" fill="rgb(255,255,255)" d="M 1853.47 965.531 C 1857.96 963.932 1862.9 966.253 1864.54 970.731 C 1866.18 975.21 1863.9 980.171 1859.43 981.846 C 1854.91 983.541 1849.88 981.228 1848.22 976.696 C 1846.57 972.164 1848.92 967.15 1853.47 965.531 z"/>
<path transform="translate(0,0)" fill="rgb(255,255,255)" d="M 1731.08 905.212 C 1733.84 903.746 1737.18 903.896 1739.8 905.605 C 1742.42 907.313 1743.9 910.31 1743.67 913.428 C 1743.44 916.545 1741.53 919.291 1738.69 920.595 C 1734.47 922.533 1729.47 920.763 1727.41 916.6 C 1725.35 912.437 1726.98 907.391 1731.08 905.212 z"/>
<path transform="translate(0,0)" fill="rgb(255,255,255)" d="M 1617.59 913.772 C 1619.77 913.851 1623.07 914.084 1625.05 915.125 C 1627.66 916.493 1627.96 917.317 1628.97 919.88 C 1628.57 923.22 1627.09 924.612 1624.91 926.959 C 1622.79 926.853 1620.34 926.483 1618.45 925.434 C 1615.94 924.038 1615.28 922.612 1614.33 920.025 C 1614.91 916.823 1615.58 916.211 1617.59 913.772 z"/>
<path transform="translate(0,0)" fill="rgb(20,27,67)" d="M 1274.1 1438.38 L 1304.3 1438.18 C 1303.77 1455.27 1304.05 1472.42 1304.06 1489.51 C 1312.5 1480.96 1321.67 1474.12 1334.27 1473.88 C 1342.72 1473.71 1351.22 1476.67 1357.29 1482.63 C 1361.61 1486.88 1364.44 1492.28 1365.98 1498.11 C 1370.35 1514.69 1367.68 1552.07 1367.48 1571.13 C 1357.3 1571.13 1347.12 1571.28 1336.95 1571.56 L 1336.99 1543.5 C 1337.15 1534.83 1337.89 1525.59 1336.92 1516.98 C 1336.33 1511.67 1334.81 1505.95 1330.33 1502.56 C 1327.12 1500.13 1322.52 1499.48 1318.64 1500.25 C 1312.14 1501.55 1308.64 1507.15 1305.25 1512.29 C 1303.27 1531.75 1304.38 1551.99 1304.42 1571.56 C 1294.34 1571.47 1284.26 1571.46 1274.17 1571.53 L 1274.1 1438.38 z"/>
<path transform="translate(0,0)" fill="rgb(20,27,67)" d="M 783.875 1441.89 L 813.417 1441.94 L 814.007 1490.53 C 815.527 1488.71 817.094 1486.93 818.707 1485.2 C 825.452 1478.06 833.832 1475.23 843.498 1475.21 C 851.747 1475.19 859.327 1477.21 865.179 1483.31 C 869.487 1487.8 872.133 1493.74 873.55 1499.75 C 877.467 1516.34 875.081 1552.56 875.009 1571.33 L 845.887 1571.06 L 845.747 1540.75 C 845.796 1530.17 847.947 1511.55 840.428 1503.2 C 838.096 1500.62 834.967 1499.33 831.504 1499.28 C 826.27 1499.2 822.017 1501.12 818.45 1504.92 C 816.75 1506.73 815.228 1509 814.487 1511.39 C 810.766 1523.39 812.009 1557.49 812.545 1571.1 L 783.644 1571.05 C 784.101 1528 784.178 1484.94 783.875 1441.89 z"/>
<path transform="translate(0,0)" fill="rgb(20,27,67)" d="M 715.085 1450.34 C 733.847 1448.98 750.757 1451.27 766.646 1461.94 C 764.407 1471.29 760.608 1478.31 755.626 1486.44 C 754.247 1485.41 752.828 1484.43 751.371 1483.52 C 740.815 1476.76 727.734 1473.5 715.358 1476.45 C 706.922 1478.47 699.279 1483.43 694.783 1490.94 C 689.538 1499.71 688.665 1511.25 691.194 1521.03 C 693.592 1530.31 699.541 1538.4 708.022 1542.98 C 721.018 1549.99 736.121 1548.47 747.475 1539.25 C 750.103 1537.12 753.146 1533.21 756.323 1532.33 L 758.472 1535.37 C 762.106 1541.99 766.085 1548.46 769.897 1554.97 C 760.118 1563.31 749.741 1568.43 737.026 1570.61 C 718.123 1573.84 697.287 1571.74 681.413 1560.24 C 668.81 1551.1 661.019 1537.3 658.714 1522.03 C 656.219 1505.49 659.309 1487.99 669.621 1474.52 C 680.997 1459.66 697.016 1452.89 715.085 1450.34 z"/>
<path transform="translate(0,0)" fill="rgb(20,27,67)" d="M 1198.62 1475.31 C 1198.89 1475.28 1199.15 1475.22 1199.41 1475.2 C 1213.79 1473.9 1229.99 1473.98 1241.31 1484.29 C 1246.41 1488.93 1249.74 1495.08 1251.55 1501.69 C 1255.77 1517.11 1253.66 1553.58 1254.15 1571.27 L 1227.02 1571.21 L 1227.54 1562.96 L 1226.86 1562.63 C 1224.05 1565.36 1221.28 1567.71 1217.71 1569.38 C 1206 1574.85 1192.34 1573.24 1180.6 1569.04 C 1178.01 1567.52 1175.64 1566 1173.49 1563.88 C 1168.01 1558.48 1165.86 1548.33 1166.19 1540.78 C 1167.51 1510.69 1212.51 1521.29 1223.41 1510.97 C 1223.74 1509.19 1224.08 1508.7 1223.39 1506.93 C 1222.02 1503.41 1218.69 1500.16 1215.22 1498.71 C 1203.24 1493.68 1189.32 1498.48 1178.11 1503.39 C 1176.3 1496.8 1174.1 1490.29 1172.05 1483.78 C 1180.9 1479.26 1188.8 1476.74 1198.62 1475.31 z"/>
<path transform="translate(0,0)" fill="rgb(255,255,255)" d="M 1220.71 1528.38 L 1223.4 1528.33 C 1225.13 1530.4 1225.23 1532.93 1225.15 1535.54 C 1224.99 1540.37 1223.02 1544.65 1219.42 1547.88 C 1213.96 1552.79 1208.24 1552.27 1201.45 1551.87 C 1198.21 1549.77 1195.44 1547.48 1194.85 1543.41 C 1194.58 1541.62 1195.55 1539.28 1196.69 1537.89 C 1202.31 1531.05 1212.49 1529.49 1220.71 1528.38 z"/>
<path transform="translate(0,0)" fill="rgb(20,27,67)" d="M 932.268 1475.17 C 936.19 1474.92 940.109 1474.7 944.04 1474.88 C 955.156 1475.38 965.229 1479.41 972.712 1487.79 C 984.44 1500.93 983.71 1515.25 982.922 1531.5 C 961.675 1533.01 940.271 1532.23 918.978 1532.73 C 921.032 1537.41 923.269 1541.67 927.101 1545.16 C 939.761 1556.69 956.543 1547.4 971.072 1546.67 C 971.483 1546.65 971.895 1546.64 972.306 1546.62 L 977.021 1565.04 C 972.008 1567.1 967.049 1568.95 961.772 1570.22 C 945.092 1574.22 925.715 1573.74 910.917 1564.23 C 900.683 1557.64 894.138 1547.35 891.722 1535.49 C 888.985 1522.05 891.118 1507.43 898.913 1496.01 C 906.798 1484.45 918.828 1477.96 932.268 1475.17 z"/>
<path transform="translate(0,0)" fill="rgb(255,255,255)" d="M 933.941 1496.05 C 937.384 1495.86 941.228 1495.4 944.525 1496.63 C 949.242 1498.4 953.396 1502.75 955.163 1507.43 C 956.196 1510.17 955.966 1511.86 954.72 1514.43 C 950.432 1516.41 943.482 1515.48 938.75 1515.47 C 931.998 1515.61 925.305 1515.5 918.557 1515.25 C 922.013 1505.91 924.735 1500.76 933.941 1496.05 z"/>
<path transform="translate(0,0)" fill="rgb(20,27,67)" d="M 1034.32 1475.14 C 1038.11 1474.8 1042.22 1474.64 1046.03 1474.9 C 1057.12 1475.66 1067.85 1480.41 1075.26 1488.8 C 1086 1500.98 1086.3 1515.18 1085.23 1530.42 C 1064.84 1533.21 1043.04 1532 1022.45 1532.31 C 1024.21 1538.06 1026.21 1542.81 1031.04 1546.67 C 1041.99 1555.4 1058.96 1549.1 1071.28 1547.57 L 1072.96 1547.37 C 1074.04 1553.91 1075.27 1559.64 1077.61 1565.86 C 1075.15 1566.93 1072.71 1567.85 1070.14 1568.62 C 1053.33 1573.66 1032.37 1574.82 1016.61 1565.99 C 1005.51 1559.78 997.645 1548.78 994.674 1536.48 C 991.503 1523.35 993.307 1508.62 1000.59 1497.12 C 1008.5 1484.63 1020.34 1478.39 1034.32 1475.14 z"/>
<path transform="translate(0,0)" fill="rgb(255,255,255)" d="M 1037.17 1495.01 C 1040.52 1495.08 1044.23 1495.07 1047.28 1496.67 C 1052.08 1499.2 1057.17 1504.23 1059.05 1509.36 C 1058.75 1511.74 1058.44 1512.01 1056.89 1513.87 C 1053 1515.9 1046.15 1514.95 1041.75 1514.92 C 1036.36 1515.09 1026.28 1516.73 1022.21 1513.23 C 1021.84 1511.17 1021.65 1510.33 1022.58 1508.33 C 1025.49 1502.02 1030.93 1497.61 1037.17 1495.01 z"/>
<path transform="translate(0,0)" fill="rgb(69,71,98)" d="M 1766.98 976.091 C 1770.7 975.942 1774.54 975.473 1778 977.134 C 1780.44 978.307 1781.92 980.08 1783.48 982.244 C 1791.01 992.693 1796.95 1005.02 1803.51 1016.16 C 1813.32 1032.84 1827.11 1052.09 1833.86 1069.94 C 1827.82 1086.21 1810.7 1109.39 1801.19 1125.02 C 1788.9 1145.22 1777.59 1166.7 1764.38 1186.25 C 1762.69 1188.75 1760.7 1190.91 1758.51 1192.97 C 1755.04 1193.26 1751.34 1193.6 1748.07 1192.17 C 1745.15 1190.89 1743.22 1189 1742.2 1185.92 C 1740.94 1182.12 1742.5 1178.56 1744.09 1175.16 C 1750.45 1161.46 1760.58 1148.36 1768.79 1135.63 C 1782.53 1114.32 1795.81 1092.71 1808.61 1070.83 C 1799.55 1054.59 1790.24 1038.49 1780.7 1022.53 C 1774.23 1011.85 1766.42 1001 1761.14 989.755 C 1759.91 987.116 1758.96 984.944 1759.99 982.023 C 1760.92 979.405 1764.73 977.504 1766.98 976.091 z"/>
<path transform="translate(0,0)" fill="rgb(69,71,98)" d="M 1590.99 675.099 C 1594.72 674.833 1600.03 674.2 1603.03 676.802 C 1609.06 682.038 1686.27 819.852 1695.27 838.896 C 1696.52 841.545 1697.69 844.142 1697.35 847.172 C 1696.89 851.287 1693.85 853.492 1690.84 855.833 C 1689.07 856.047 1687.27 856.277 1685.49 856.299 C 1682.84 856.331 1679.95 855.472 1678.22 853.374 C 1670.66 844.196 1656.48 814.12 1649.48 801.826 C 1628.54 765.082 1605.65 729.022 1585.77 691.75 C 1584.44 689.266 1583.74 687.717 1583.98 684.805 C 1584.35 680.374 1587.83 677.704 1590.99 675.099 z"/>
<path transform="translate(0,0)" fill="rgb(20,27,67)" d="M 1132.98 1456.42 L 1134.82 1456.66 C 1137.21 1461.01 1135.6 1472.09 1135.42 1477.29 L 1159.72 1476.83 C 1159.76 1481.86 1160.67 1490.24 1157.47 1494.37 C 1153.19 1499.91 1142.02 1498.67 1135.73 1498.85 C 1135.84 1510.64 1134.74 1522.66 1135.25 1534.41 C 1135.45 1539.06 1136.64 1544.7 1140.69 1547.6 C 1145.01 1550.68 1150.7 1548.83 1155.31 1547.62 L 1159.84 1570.17 L 1148.98 1572.04 C 1146.03 1572.41 1143.08 1572.62 1140.11 1572.68 C 1131.08 1572.87 1121.58 1571.07 1114.98 1564.43 C 1102.27 1551.64 1105.91 1516.22 1105.9 1498.61 L 1093.48 1498.15 L 1094.32 1477.19 L 1105.33 1476.4 C 1105.92 1470.79 1106.03 1465.06 1106.33 1459.42 C 1115.18 1458.01 1124.05 1457.21 1132.98 1456.42 z"/>
</svg>